HIERARCHY
ROOT Hips
{
	OFFSET 0.000000 0.000000 0.000000
	CHANNELS 6 Xposition Yposition Zposition Zrotation Yrotation Xrotation 
	JOINT LeftUpLeg_virtual
	{
		OFFSET 0.000000 0.000000 0.000000
		CHANNELS 3 Zrotation Yrotation Xrotation
		JOINT LeftUpLeg
		{
			OFFSET 8.479694 -4.795517 -0.379053
			CHANNELS 3 Zrotation Yrotation Xrotation
			JOINT LeftLeg
			{
				OFFSET 0.485052 -32.551468 0.112863
				CHANNELS 3 Zrotation Yrotation Xrotation
				JOINT LeftFoot
				{
					OFFSET 0.438033 -32.635670 -3.012641
					CHANNELS 3 Zrotation Yrotation Xrotation
					JOINT LeftToeBase
					{
						OFFSET 0.970169 -13.225353 11.864223
						CHANNELS 3 Zrotation Yrotation Xrotation
						End Site
						{
							OFFSET 0.000000 0.000000 0.000000
						}
					}
				}
			}
		}
	}
	JOINT RightUpLeg_virtual
	{
		OFFSET 0.000000 0.000000 0.000000
		CHANNELS 3 Zrotation Yrotation Xrotation
		JOINT RightUpLeg
		{
			OFFSET -8.479694 -4.795517 -0.379053
			CHANNELS 3 Zrotation Yrotation Xrotation
			JOINT RightLeg
			{
				OFFSET -0.484100 -32.551483 0.112903
				CHANNELS 3 Zrotation Yrotation Xrotation
				JOINT RightFoot
				{
					OFFSET -0.438985 -32.635651 -3.012681
					CHANNELS 3 Zrotation Yrotation Xrotation
					JOINT RightToeBase
					{
						OFFSET -0.970169 -13.225354 11.864223
						CHANNELS 3 Zrotation Yrotation Xrotation
						End Site
						{
							OFFSET 0.000000 0.000000 0.000000
						}
					}
				}
			}
		}
	}
	JOINT Spine_virtual
	{
		OFFSET 0.000000 0.000000 0.000000
		CHANNELS 3 Zrotation Yrotation Xrotation
		JOINT Spine
		{
			OFFSET 0.000000 7.722015 1.166203
			CHANNELS 3 Zrotation Yrotation Xrotation
			JOINT Spine1
			{
				OFFSET 0.000000 12.024086 0.248766
				CHANNELS 3 Zrotation Yrotation Xrotation
				JOINT Spine2
				{
					OFFSET -0.000000 11.503036 -0.491240
					CHANNELS 3 Zrotation Yrotation Xrotation
					JOINT Neck_virtual
					{
						OFFSET 0.000000 0.000000 0.000000
						CHANNELS 3 Zrotation Yrotation Xrotation
						JOINT Neck
						{
							OFFSET 0.000000 18.430687 -3.123054
							CHANNELS 3 Zrotation Yrotation Xrotation
							JOINT Head
							{
								OFFSET -0.000000 9.051071 1.034021
								CHANNELS 3 Zrotation Yrotation Xrotation
								End Site
								{
									OFFSET 0.000000 0.000000 0.000000
								}
							}
						}
					}
					JOINT LeftShoulder_virtual
					{
						OFFSET 0.000000 0.000000 0.000000
						CHANNELS 3 Zrotation Yrotation Xrotation
						JOINT LeftShoulder
						{
							OFFSET 6.197824 13.665230 -4.064723
							CHANNELS 3 Zrotation Yrotation Xrotation
							JOINT LeftArm
							{
								OFFSET 7.778132 -0.187073 -1.709282
								CHANNELS 3 Zrotation Yrotation Xrotation
								JOINT LeftForeArm
								{
									OFFSET 21.954697 0.000000 -2.041093
									CHANNELS 3 Zrotation Yrotation Xrotation
									JOINT LeftHand
									{
										OFFSET 22.992908 0.000000 -0.870901
										CHANNELS 3 Zrotation Yrotation Xrotation
										End Site
										{
											OFFSET 0.000000 0.000000 0.000000
										}
									}
								}
							}
						}
					}
					JOINT RightShoulder_virtual
					{
						OFFSET 0.000000 0.000000 0.000000
						CHANNELS 3 Zrotation Yrotation Xrotation
						JOINT RightShoulder
						{
							OFFSET -6.197824 13.665230 -4.064723
							CHANNELS 3 Zrotation Yrotation Xrotation
							JOINT RightArm
							{
								OFFSET -7.778132 -0.187073 -1.709282
								CHANNELS 3 Zrotation Yrotation Xrotation
								JOINT RightForeArm
								{
									OFFSET -21.954697 0.000000 -2.041093
									CHANNELS 3 Zrotation Yrotation Xrotation
									JOINT RightHand
									{
										OFFSET -22.992908 0.000000 -0.870901
										CHANNELS 3 Zrotation Yrotation Xrotation
										End Site
										{
											OFFSET 0.000000 0.000000 0.000000
										}
									}
								}
							}
						}
					}
				}
			}
		}
	}
}
MOTION
Frames: 5
Frame Time: 0.033333
-29.295038 80.925240 -17.261250 179.589975 -1.802064 179.828936 -0.785716 -0.129000 15.632121 4.886121 -6.280604 -24.138655 1.139309 0.180263 27.437324 -3.225778 -6.797713 -11.856740 0.000000 0.000000 0.000000 2.718185 -1.319189 17.089212 -6.223125 0.426954 -24.903843 0.221908 6.448811 30.744751 12.146620 1.387111 -12.071086 0.000000 0.000000 0.000000 3.845951 2.057190 4.494837 0.616332 -1.466519 -7.734287 -0.247580 -2.484908 7.338502 0.029034 -0.016924 -0.036881 -0.337758 -0.915017 7.559875 -2.891693 3.079371 -2.712386 0.000000 0.000000 0.000000 1.400473 -0.418999 4.629257 -11.236209 -2.487992 3.230189 -57.986790 -12.713543 15.562948 4.599829 -25.732584 4.602601 0.000000 0.000000 0.000000 -3.262686 1.066225 3.800465 28.391377 0.377288 8.651052 50.500704 5.403774 7.802290 -2.067457 25.842453 -1.342159 0.000000 0.000000 0.000000 
-29.294638 80.930565 -17.295982 179.383649 -1.745927 179.708069 -0.924680 -0.267275 15.540011 4.816838 -6.239447 -24.209469 0.856850 0.120950 27.389545 -3.426452 -7.064539 -11.733895 0.000000 0.000000 0.000000 2.687294 -1.580051 17.154010 -6.148433 0.088635 -24.813597 0.206778 6.157772 30.702749 12.006477 1.241802 -12.074550 0.000000 0.000000 0.000000 3.712074 2.031483 4.573322 0.477411 -1.475733 -7.693875 -0.203460 -2.501979 7.353988 0.047688 -0.032418 -0.042261 -0.356143 -0.950477 7.547551 -2.935277 2.847850 -2.638037 0.000000 0.000000 0.000000 1.373517 -0.395217 4.611937 -11.273564 -2.483079 3.233539 -57.967809 -12.727114 15.562948 4.622895 -25.725402 4.558363 0.000000 0.000000 0.000000 -3.259766 1.113252 3.796827 28.378678 0.456417 8.647723 50.451380 5.464940 7.793377 -2.043159 25.796525 -1.338471 0.000000 0.000000 0.000000 
-29.305845 80.924507 -17.337675 179.488943 -1.758149 179.742056 -0.841198 -0.290560 15.545097 4.827216 -6.290578 -24.230127 0.906575 0.172574 27.429056 -3.407712 -7.069515 -11.749805 0.000000 0.000000 0.000000 2.741819 -1.620028 17.126735 -6.146126 0.136586 -24.811647 0.243388 6.113950 30.723885 11.976015 1.274699 -12.069989 0.000000 0.000000 0.000000 3.781120 1.986672 4.468567 0.509236 -1.432684 -7.642483 -0.238291 -2.475971 7.379677 -0.005259 -0.010534 -0.036995 -0.347903 -0.969099 7.547614 -2.905731 3.072484 -2.708968 0.000000 0.000000 0.000000 1.393414 -0.412830 4.623151 -11.183107 -2.520590 3.199035 -57.969701 -12.756953 15.434855 4.587061 -25.780839 4.560104 0.000000 0.000000 0.000000 -3.230110 1.087643 3.760421 28.370941 0.448679 8.662247 50.410553 5.493070 7.878061 -2.045728 25.708707 -1.389212 0.000000 0.000000 0.000000 
-29.307777 80.918053 -17.382526 179.484722 -1.769799 179.771016 -0.821059 -0.331941 15.556398 4.797259 -6.325933 -24.233001 0.914525 0.187786 27.431925 -3.362130 -7.075647 -11.790655 0.000000 0.000000 0.000000 2.751543 -1.649159 17.175694 -6.174695 0.135998 -24.921214 0.276611 6.086566 30.837058 11.931268 1.321356 -12.012957 0.000000 0.000000 0.000000 3.794448 1.978507 4.409292 0.472832 -1.407661 -7.648323 -0.271515 -2.470781 7.378413 0.031082 -0.019266 -0.061835 -0.350750 -0.923380 7.602317 -2.925828 3.069973 -2.695057 0.000000 0.000000 0.000000 1.377277 -0.363276 4.690087 -11.223967 -2.549155 3.238681 -57.943671 -12.705571 15.403747 4.571781 -25.894728 4.568351 0.000000 0.000000 0.000000 -3.250622 1.184144 3.798418 28.363836 0.390560 8.692417 50.294207 5.484293 7.922158 -2.010710 25.622440 -1.392692 0.000000 0.000000 0.000000 
-29.316984 80.908585 -17.427427 179.483670 -1.829624 179.771358 -0.757252 -0.319175 15.592844 4.745621 -6.410573 -24.250184 0.922805 0.158305 27.440054 -3.316283 -7.092197 -11.807414 0.000000 0.000000 0.000000 2.757562 -1.680255 17.206109 -6.194352 0.123821 -24.946388 0.302607 6.037822 30.935580 11.853845 1.360652 -11.985110 0.000000 0.000000 0.000000 3.795902 2.004181 4.363780 0.428638 -1.404761 -7.654587 -0.253058 -2.481892 7.397199 0.068108 -0.020158 -0.072201 -0.378903 -1.128915 7.610588 -3.028587 3.140298 -2.704959 0.000000 0.000000 0.000000 1.359034 -0.382111 4.665658 -11.244472 -2.507196 3.262474 -57.969899 -12.546662 15.323190 4.612505 -26.043667 4.475687 0.000000 0.000000 0.000000 -3.246918 1.083207 3.889520 28.304191 0.492930 8.732497 50.155295 5.553660 8.004476 -1.966099 25.584116 -1.454723 0.000000 0.000000 0.000000 
